<?xml version="1.0" encoding="iso-8859-1"?>
<!-- Generator: Adobe Illustrator 19.0.0, SVG Export Plug-In . SVG Version: 6.00 Build 0)  -->
<svg version="1.1" id="Layer_1" xmlns="http://www.w3.org/2000/svg" xmlns:xlink="http://www.w3.org/1999/xlink" x="0px" y="0px"
	 viewBox="0 0 512.003 512.003" style="enable-background:new 0 0 512.003 512.003;" xml:space="preserve">
<path style="fill:#ffffff;" d="M328.092,433.325H89.885C40.322,433.325,0,393.003,0,343.441c0-8.126,6.589-14.713,14.713-14.713
	s14.713,6.587,14.713,14.713c0,33.336,27.123,60.457,60.458,60.457h238.207c8.125,0,14.713,6.587,14.713,14.713
	C342.806,426.738,336.218,433.325,328.092,433.325z"/>
<circle style="fill:#CEE8FA;" cx="158.345" cy="236.003" r="101.11"/>
<g>
	<path style="fill:#ffffff;" d="M461.302,262.552c4.738-14.176,7.13-28.959,7.13-44.127c0-77.058-62.691-139.747-139.747-139.747
		c-44.798,0-86.416,21.423-112.554,56.927c-17.394-10.048-37.181-15.425-57.762-15.425c-0.578,0-1.158,0.004-1.739,0.013
		c-30.933,0.458-59.839,12.933-81.388,35.128c-21.551,22.197-33.168,51.457-32.711,82.39c0.452,30.63,12.721,59.334,34.548,80.823
		c21.805,21.467,50.654,33.289,81.231,33.289c0.578,0,1.158-0.004,1.739-0.013c63.856-0.943,115.041-53.661,114.1-117.52
		c-0.453-30.63-12.723-59.334-34.55-80.823c-0.016-0.016-0.034-0.031-0.052-0.049c20.622-28.257,53.617-45.317,89.138-45.317
		c60.832,0,110.32,49.49,110.32,110.32c0,16.155-3.439,31.756-10.218,46.368c-1.82,3.924-1.822,8.45-0.004,12.375
		s5.27,6.852,9.44,8.001c26.113,7.199,44.352,31.161,44.352,58.271c0,33.336-27.123,60.457-60.459,60.457
		c-8.125,0-14.713,6.587-14.713,14.713c0,8.126,6.589,14.713,14.713,14.713c49.563,0,89.885-40.322,89.885-89.884
		C512,308.656,491.799,277.355,461.302,262.552z M244.725,234.728c0.703,47.634-37.478,86.959-85.111,87.66
		c-0.436,0.006-0.871,0.01-1.305,0.01c-46.925,0-85.664-38.185-86.355-85.121c-0.34-23.075,8.323-44.901,24.399-61.458
		s37.637-25.863,60.712-26.203c0.436-0.006,0.871-0.01,1.305-0.01C205.293,149.607,244.032,187.792,244.725,234.728z"/>
	<path style="fill:#ffffff;" d="M383.5,246.019c-8.025,0-14.588-6.444-14.707-14.496c-0.19-12.859-5.375-24.874-14.603-33.832
		c-9.227-8.959-21.368-13.789-34.247-13.597c-8.11,0.122-14.807-6.369-14.928-14.494c-0.119-8.125,6.369-14.809,14.496-14.93
		c20.771-0.3,40.313,7.474,55.179,21.908c14.866,14.434,23.222,33.792,23.528,54.51c0.119,8.125-6.369,14.809-14.496,14.93
		C383.648,246.019,383.573,246.019,383.5,246.019z"/>
</g>
<g>
</g>
<g>
</g>
<g>
</g>
<g>
</g>
<g>
</g>
<g>
</g>
<g>
</g>
<g>
</g>
<g>
</g>
<g>
</g>
<g>
</g>
<g>
</g>
<g>
</g>
<g>
</g>
<g>
</g>
</svg>
